Patient4_TMGait_0pt4_02_left_18_GRF.mot
version=1
nRows=58
nColumns=19
inDegrees=no
endheader
time	F1x	F1y	F1z	M1x	M1y	M1z	F2x	F2y	F2z	M2x	M2y	M2z	EC1x	EC1y	EC1z	EC2x	EC2y	EC2z
24.12	-7.3777	23.7355	5.0665	-5.6587	-7.5353	32.5974	-44.1982	816.2276	-84.4894	299.9818	103.4076	904.9571	-0.0592	0.0182	-0.0073	-0.0462	0.0165	0.9585
24.1335	-4.8951	16.7094	3.4656	-4.0712	-5.1398	22.7841	-39.2485	799.5576	-81.5202	293.4751	100.2756	885.769	-0.0592	0.0182	-0.0073	-0.0462	0.0165	0.9585
24.147	-2.8639	10.8427	2.1214	-2.7486	-3.1397	14.6085	-34.5857	779.3273	-78.0152	285.7046	96.2631	862.2366	-0.0592	0.0182	-0.0073	-0.0462	0.0165	0.9585
24.1605	-1.3678	6.4482	1.0985	-1.7617	-1.6349	8.4951	-30.3303	756.9619	-74.1965	277.2083	91.5691	835.9283	-0.0592	0.0182	-0.0073	-0.0462	0.0165	0.9585
24.174	-0.3654	3.4574	0.39423	-1.093	-0.61346	4.337	-26.4324	734.3901	-70.3409	268.6912	86.5049	808.9802	-0.0592	0.0182	-0.0073	-0.0462	0.0165	0.9585
24.1875	0.20161	1.6344	-0.041669	-0.68594	-0.0053209	1.8204	-22.7735	713.7544	-66.7486	260.9238	81.4345	783.7508	-0.0592	0.0182	-0.0073	-0.0462	0.0165	0.9585
24.201	0.44819	0.65244	-0.26592	-0.46361	0.28476	0.48709	-19.2265	697.09	-63.6573	254.6372	76.6701	762.4493	-0.0592	0.0182	-0.0073	-0.0462	0.0165	0.9585
24.2145	0.45119	0.17568	-0.33513	-0.34325	0.34559	-0.11546	-15.6798	686.0448	-61.2725	250.422	72.481	746.8434	-0.0592	0.0182	-0.0073	-0.0462	0.0165	0.9585
24.228	0.28869	-0.098516	-0.30433	-0.24742	0.26198	-0.40649	-12.0241	681.6473	-59.7015	248.6479	69.0187	738.014	-0.0592	0.0182	-0.0073	-0.0462	0.0165	0.9585
24.2415	0.03251	-0.43274	-0.20653	-0.10551	0.088522	-0.74662	-8.196	684.146	-58.9797	249.4048	66.3505	736.2115	-0.0592	0.0182	-0.0073	-0.0462	0.0165	0.9585
24.255	-0.26715	-1.0282	-0.078642	0.13838	-0.12769	-1.3941	-4.164	692.9615	-59.0339	252.4838	64.4208	740.8118	-0.0592	0.0182	-0.0073	-0.0462	0.0165	0.9585
24.2685	-0.54816	-2.0406	0.061476	0.52762	-0.35637	-2.5568	0.053694	706.7295	-59.7442	257.388	63.1267	750.3964	-0.0592	0.0182	-0.0073	-0.0462	0.0165	0.9585
24.282	-0.77036	-3.5097	0.18744	1.072	-0.55769	-4.2818	4.3693	723.4408	-60.9315	263.3832	62.3174	762.9107	-0.0592	0.0182	-0.0073	-0.0462	0.0165	0.9585
24.2955	-0.85695	-5.3667	0.27568	1.7439	-0.67542	-6.4915	8.668	740.6779	-62.4035	269.5854	61.8407	775.9062	-0.0592	0.0182	-0.0073	-0.0462	0.0165	0.9585
24.309	-0.71757	-7.3597	0.29312	2.453	-0.63552	-8.8821	12.8083	755.9585	-63.9477	275.0829	61.5363	786.9028	-0.0592	0.0182	-0.0073	-0.0462	0.0165	0.9585
24.3225	-0.24289	-8.9743	0.19219	3.0199	-0.34166	-10.8336	16.664	767.075	-65.3846	279.065	61.2644	793.7156	-0.0592	0.0182	-0.0073	-0.0462	0.0165	0.9585
24.336	0.7141	-9.3796	-0.068316	3.1537	0.30894	-11.3638	20.1308	772.5292	-66.5715	280.977	60.9124	794.9181	-0.0592	0.0182	-0.0073	-0.0462	0.0165	0.9585
24.3495	2.2895	-7.3589	-0.54196	2.4291	1.4246	-9.0231	23.1589	771.8201	-67.429	280.626	60.4113	790.1064	-0.0592	0.0182	-0.0073	-0.0462	0.0165	0.9585
24.363	4.6042	-1.3133	-1.258	0.28593	3.0813	-1.9285	25.7398	765.4422	-67.9337	278.1825	59.7351	779.8783	-0.0592	0.0182	-0.0073	-0.0462	0.0165	0.9585
24.3765	7.6814	10.6647	-2.2292	-3.9421	5.2982	12.1811	27.8787	754.6111	-68.0823	274.0815	58.8772	765.5531	-0.0592	0.0182	-0.0073	-0.0462	0.0165	0.9585
24.39	11.3692	30.532	-3.4163	-10.9389	7.9718	35.6357	29.6224	740.7964	-67.8719	268.8577	57.8213	748.6688	-0.0592	0.0182	-0.0073	-0.0462	0.0165	0.9585
24.4035	15.2359	59.8616	-4.698	-21.2492	10.7968	70.3213	31.0145	725.2826	-67.2557	262.9844	56.5067	730.559	-0.0592	0.0182	-0.0073	-0.0462	0.0165	0.9585
24.417	18.4133	99.1036	-5.8255	-35.0174	13.1642	116.8147	32.0831	708.7665	-66.1551	256.7291	54.8466	711.9517	-0.0592	0.0182	-0.0073	-0.0462	0.0165	0.9585
24.4305	19.5103	146.4928	-6.3635	-51.6071	14.064	173.0711	32.7977	691.1637	-64.4492	250.0809	52.7332	692.7852	-0.0592	0.0182	-0.0073	-0.0462	0.0165	0.9585
24.444	16.9171	197.094	-5.6962	-69.2488	12.2134	233.3357	33.1013	671.7194	-62.0433	242.7849	50.0929	672.3068	-0.0592	0.0182	-0.0073	-0.0462	0.0165	0.9585
24.4575	10.7039	243.6709	-3.0032	-85.3436	6.7166	289.1627	32.9984	649.4417	-58.921	234.4991	46.9094	649.4637	-0.0592	0.0182	-0.0073	-0.0462	0.0165	0.9585
24.471	2.8022	280.9431	1.6375	-98.0316	-1.5975	334.2037	32.5989	623.6943	-55.24	224.9957	43.2978	623.4937	-0.0592	0.0182	-0.0073	-0.0462	0.0165	0.9585
24.4845	-5.1949	308.5422	7.2721	-107.2059	-11.071	367.8382	32.103	594.3724	-51.3434	214.2192	39.517	594.1332	-0.0592	0.0182	-0.0073	-0.0462	0.0165	0.9585
24.498	-12.5407	329.1955	13.1374	-113.8619	-20.5238	393.2681	31.6885	561.6008	-47.622	202.195	35.8782	561.3792	-0.0592	0.0182	-0.0073	-0.0462	0.0165	0.9585
24.5115	-18.9344	346.4005	18.4681	-119.284	-28.9753	414.6122	31.4147	525.6065	-44.2053	189.0001	32.4897	525.3784	-0.0592	0.0182	-0.0073	-0.0462	0.0165	0.9585
24.525	-24.405	363.1286	22.8747	-124.559	-35.9734	435.3725	31.238	486.6746	-40.977	174.7501	29.2681	486.3877	-0.0592	0.0182	-0.0073	-0.0462	0.0165	0.9585
24.5385	-28.9423	381.3135	26.1596	-130.3991	-41.3023	457.6977	30.9909	445.1595	-37.6753	159.5958	26.034	444.7819	-0.0592	0.0182	-0.0073	-0.0462	0.0165	0.9585
24.552	-32.4959	402.3182	28.5284	-137.2817	-45.1861	483.031	30.4327	401.4838	-34.1072	143.7109	22.691	401.0244	-0.0592	0.0182	-0.0073	-0.0462	0.0165	0.9585
24.5655	-35.0049	427.1509	30.4363	-145.5287	-48.1308	512.39	29.3226	356.2136	-30.2287	127.3099	19.2777	355.7199	-0.0592	0.0182	-0.0073	-0.0462	0.0165	0.9585
24.579	-36.4133	456.1921	32.4317	-155.2421	-50.7562	546.0563	27.4304	310.1582	-26.1506	110.6843	15.9688	309.7179	-0.0592	0.0182	-0.0073	-0.0462	0.0165	0.9585
24.5925	-36.8846	489.2408	35.0629	-166.3205	-53.7426	583.7043	24.6242	264.3982	-22.06	94.2207	12.9785	264.107	-0.0592	0.0182	-0.0073	-0.0462	0.0165	0.9585
24.606	-36.5779	525.8012	38.5941	-178.5862	-57.4526	624.6504	20.9216	220.2982	-18.164	78.4014	10.4935	220.2444	-0.0592	0.0182	-0.0073	-0.0462	0.0165	0.9585
24.6195	-35.6973	565.3163	43.0403	-191.8491	-61.9603	668.2319	16.5321	179.3277	-14.6457	63.7419	8.6152	179.5674	-0.0592	0.0182	-0.0073	-0.0462	0.0165	0.9585
24.633	-34.3761	606.9399	48.1058	-205.828	-66.9761	713.4627	11.82	142.7349	-11.6195	50.6772	7.328	143.2625	-0.0592	0.0182	-0.0073	-0.0462	0.0165	0.9585
24.6465	-32.7009	649.3878	53.4906	-220.075	-72.1782	758.9044	7.1701	111.2938	-9.1333	39.4704	6.5417	112.0595	-0.0592	0.0182	-0.0073	-0.0462	0.0165	0.9585
24.66	-30.7847	690.9112	58.7573	-233.9785	-77.1223	802.6327	2.9317	85.2002	-7.1583	30.1807	6.1053	86.111	-0.0592	0.0182	-0.0073	-0.0462	0.0165	0.9585
24.6735	-28.692	729.5117	63.7044	-246.8197	-81.5959	842.4822	-0.65789	64.1148	-5.6234	22.6805	5.8628	65.0672	-0.0592	0.0182	-0.0073	-0.0462	0.0165	0.9585
24.687	-26.5056	763.3136	68.132	-257.9156	-85.4077	876.4688	-3.4521	47.3568	-4.412	16.7278	5.6483	48.2609	-0.0592	0.0182	-0.0073	-0.0462	0.0165	0.9585
24.7005	-24.2569	790.8153	72.063	-266.711	-88.5792	903.0565	-5.3639	34.1258	-3.43	12.0391	5.3447	34.9213	-0.0592	0.0182	-0.0073	-0.0462	0.0165	0.9585
24.714	-21.9679	811.0974	75.398	-272.8722	-91.0142	921.3492	-6.3607	23.7093	-2.5885	8.3576	4.8572	24.38	-0.0592	0.0182	-0.0073	-0.0462	0.0165	0.9585
24.7275	-19.6364	823.8573	78.1478	-276.2958	-92.7163	931.1479	-6.4275	15.5317	-1.8602	5.4771	4.1562	16.0775	-0.0592	0.0182	-0.0073	-0.0462	0.0165	0.9585
24.741	-17.2114	829.295	80.1892	-277.0849	-93.5579	932.7756	-5.6846	9.2481	-1.2294	3.2718	3.2661	9.6894	-0.0592	0.0182	-0.0073	-0.0462	0.0165	0.9585
24.7545	-14.699	827.9577	81.5225	-275.4848	-93.551	926.9583	-4.4533	4.7092	-0.72824	1.6841	2.3329	5.0654	-0.0592	0.0182	-0.0073	-0.0462	0.0165	0.9585
24.768	-12.1025	820.6537	82.0705	-271.8533	-92.6463	914.6555	-3.1257	1.7509	-0.36131	0.65284	1.4982	2.0508	-0.0592	0.0182	-0.0073	-0.0462	0.0165	0.9585
24.7815	-9.438	808.4459	81.8729	-266.6389	-90.9081	897.0782	-1.9435	0.057332	-0.12463	0.066335	0.84051	0.34293	-0.0592	0.0182	-0.0073	-0.0462	0.0165	0.9585
24.795	-6.6941	792.6854	80.9005	-260.3854	-88.3332	875.7041	-0.99204	-0.71762	0.016426	-0.19731	0.35773	-0.41756	-0.0592	0.0182	-0.0073	-0.0462	0.0165	0.9585
24.8085	-3.8771	774.9232	79.2436	-253.6838	-85.0345	852.1966	-0.31429	-0.85973	0.086206	-0.24275	0.040025	-0.51367	-0.0592	0.0182	-0.0073	-0.0462	0.0165	0.9585
24.822	-1.0033	756.7907	76.9828	-247.1275	-81.1178	828.2839	0.12677	-0.63588	0.11351	-0.16208	-0.15057	-0.23724	-0.0592	0.0182	-0.0073	-0.0462	0.0165	0.9585
24.8355	1.9208	739.836	74.2761	-241.2544	-76.7497	805.6056	0.36099	-0.22505	0.11619	-0.017494	-0.244	0.23022	-0.0592	0.0182	-0.0073	-0.0462	0.0165	0.9585
24.849	4.8933	725.4147	71.2769	-236.5054	-72.0901	785.5889	0.45108	0.2456	0.10344	0.14809	-0.26761	0.74713	-0.0592	0.0182	-0.0073	-0.0462	0.0165	0.9585
24.8625	7.9214	714.5821	68.1752	-233.1915	-67.3276	769.3312	0.45278	0.6815	0.084302	0.30384	-0.24768	1.2033	-0.0592	0.0182	-0.0073	-0.0462	0.0165	0.9585
24.876	11.0072	708.0024	65.1819	-231.4718	-62.6715	757.5205	0.38352	1.0288	0.061576	0.42818	-0.19316	1.5561	-0.0592	0.0182	-0.0073	-0.0462	0.0165	0.9585
24.8895	14.1277	705.9248	62.4853	-231.3583	-58.3202	750.4334	0.28935	1.2337	0.042006	0.50037	-0.12332	1.7429	-0.0592	0.0182	-0.0073	-0.0462	0.0165	0.9585
